<?xml version="1.0" encoding="UTF-8"?>
<svg version="1.1" xmlns="http://www.w3.org/2000/svg" width="300" height="300">
<path d="M0 0 C99 0 198 0 300 0 C300 99 300 198 300 300 C201 300 102 300 0 300 C0 201 0 102 0 0 Z " fill="#FEFEFE" transform="translate(0,0)"/>
<path d="M0 0 C20.26077674 -1.4699931 20.26077674 -1.4699931 26.14453125 1.6875 C28.31309641 4.0049277 30.1226693 6.44355175 32 9 C33.72758946 10.50931159 35.50170007 11.96660005 37.3125 13.375 C42.08608781 17.18042352 46.562056 21.21002071 50.94067383 25.45849609 C54.43756987 28.86402722 54.43756987 28.86402722 59 30 C63.71742946 26.58739146 67.72312164 22.44553602 71.6875 18.1875 C73 17 73 17 75 17 C75 16.34 75 15.68 75 15 C76.76374782 13.17713214 78.6834256 11.62327807 80.6484375 10.01953125 C83.03661194 8.07283966 83.03661194 8.07283966 84.9140625 5.76171875 C90.00754269 0.39162634 94.76320037 -0.57762861 101.92773438 -0.88891602 C103.00345703 -0.90494873 104.07917969 -0.92098145 105.1875 -0.9375 C106.75661133 -0.97991821 106.75661133 -0.97991821 108.35742188 -1.02319336 C113.73804207 -0.92061134 117.10829079 -0.55077082 121 3.34765625 C122.01694925 4.55098233 123.01941865 5.76685781 124 7 C125.25415504 8.14356351 126.52138962 9.2733302 127.8125 10.375 C130.90146368 13.03460965 133.92768516 15.7510979 136.9375 18.5 C140.92071965 22.11268759 145.04432802 25.41479369 149.3828125 28.58984375 C149.91648437 29.05519531 150.45015625 29.52054688 151 30 C151 30.66 151 31.32 151 32 C130.49756179 34.43154161 130.49756179 34.43154161 123.37890625 29.09375 C120.1845827 26.23349607 117.36503605 23.09056516 114.61328125 19.80761719 C112.01238266 16.89341423 109.03205462 14.45132752 106 12 C102.02385628 13.32538124 99.88810116 15.01230914 97 18 C96.34 18 95.68 18 95 18 C95 18.66 95 19.32 95 20 C93.42578125 21.5859375 93.42578125 21.5859375 91.3125 23.375 C90.58546875 23.99503906 89.8584375 24.61507812 89.109375 25.25390625 C87.44641665 26.63046622 85.75873826 27.97716349 84.0625 29.3125 C81.91019125 30.83873758 81.91019125 30.83873758 81 33 C81.54527344 33.22558594 82.09054688 33.45117188 82.65234375 33.68359375 C85.69807671 35.39143403 88.05317594 37.67057121 90.5625 40.0625 C95.36655974 44.55872104 100.3188197 48.78811866 105.44140625 52.921875 C112.66334418 58.78763222 112.66334418 58.78763222 116 62 C116 62.33 116 62.66 116 63 C112.33417393 63.20521049 108.6698406 63.32825201 105 63.4375 C103.97003906 63.49615234 102.94007813 63.55480469 101.87890625 63.61523438 C96.4263589 63.73678798 92.90343492 63.54458513 88.703125 59.87109375 C87.45303051 58.59595212 86.21824008 57.30560848 85 56 C83.778561 54.89439264 82.54442306 53.80262231 81.296875 52.7265625 C80.7090625 52.21222656 80.12125 51.69789062 79.515625 51.16796875 C78.93296875 50.65878906 78.3503125 50.14960937 77.75 49.625 C77.151875 49.09261719 76.55375 48.56023437 75.9375 48.01171875 C75.35484375 47.50511719 74.7721875 46.99851563 74.171875 46.4765625 C73.6572168 46.02361816 73.14255859 45.57067383 72.61230469 45.10400391 C70.77227719 43.84406987 69.17642554 43.41700077 67 43 C67 43.66 67 44.32 67 45 C65.38617052 46.45659977 63.70636784 47.84048951 62 49.1875 C61.00226563 49.98800781 60.00453125 50.78851563 58.9765625 51.61328125 C57.50316406 52.79470703 57.50316406 52.79470703 56 54 C54.44851307 55.27985436 52.90539123 56.56999366 51.375 57.875 C50.74335938 58.40867188 50.11171875 58.94234375 49.4609375 59.4921875 C47.74390468 61.04655749 47.74390468 61.04655749 47 64 C47.59006836 64.2678833 48.18013672 64.5357666 48.78808594 64.81176758 C51.02184458 66.01173483 52.56273425 67.26612013 54.390625 69.01171875 C55.01388672 69.60146484 55.63714844 70.19121094 56.27929688 70.79882812 C56.92962891 71.42208984 57.57996094 72.04535156 58.25 72.6875 C59.59813372 73.96311164 60.94708361 75.23786131 62.296875 76.51171875 C62.93947266 77.11935059 63.58207031 77.72698242 64.24414062 78.35302734 C68.05648151 81.9289522 71.99984841 85.34987494 76.03125 88.67578125 C77.00578125 89.48595703 77.00578125 89.48595703 78 90.3125 C78.5775 90.78300781 79.155 91.25351563 79.75 91.73828125 C81 93 81 93 81 95 C77.27124612 95.14560195 73.54322566 95.23417043 69.8125 95.3125 C68.75740234 95.35439453 67.70230469 95.39628906 66.61523438 95.43945312 C58.74892581 95.56352739 58.74892581 95.56352739 55.20703125 92.8984375 C54.47871094 91.94195312 53.75039062 90.98546875 53 90 C51.87046932 88.89313097 50.72035262 87.80702978 49.5546875 86.73828125 C48.95269531 86.17689453 48.35070312 85.61550781 47.73046875 85.03710938 C47.11816406 84.46798828 46.50585938 83.89886719 45.875 83.3125 C44.94494141 82.44141602 44.94494141 82.44141602 43.99609375 81.55273438 C43.39667969 80.99521484 42.79726562 80.43769531 42.1796875 79.86328125 C41.64069824 79.36094971 41.10170898 78.85861816 40.54638672 78.34106445 C38.82986555 76.79552633 38.82986555 76.79552633 36 75 C35.67 81.6 35.34 88.2 35 95 C27.41 95 19.82 95 12 95 C12 88.07 12 81.14 12 74 C5.75318827 78.86883856 -0.20331646 83.90360468 -5.97558594 89.31762695 C-12.26178296 95.19014758 -16.04716041 95.39146157 -24.375 95.4375 C-25.4165625 95.47037109 -26.458125 95.50324219 -27.53125 95.53710938 C-35.22927921 95.59125152 -35.22927921 95.59125152 -39.01953125 92.68359375 C-39.67308594 91.79800781 -40.32664062 90.91242188 -41 90 C-45.13288078 85.78353287 -49.34233361 81.75329151 -53.81640625 77.8984375 C-57.16039273 74.99114335 -60.42732839 71.99931235 -63.703125 69.015625 C-65.93914975 66.98573474 -65.93914975 66.98573474 -68.296875 65.359375 C-69.13992187 64.68648437 -69.13992187 64.68648437 -70 64 C-70 63.34 -70 62.68 -70 62 C-66.33443177 61.76549022 -62.67080904 61.62488779 -59 61.5 C-57.45505859 61.39945313 -57.45505859 61.39945313 -55.87890625 61.296875 C-48.27098185 61.10304253 -48.27098185 61.10304253 -44.60986328 63.68676758 C-42.60264434 65.70540972 -40.81327518 67.80795747 -39 70 C-37.64716229 71.25351738 -36.27462906 72.48645287 -34.875 73.6875 C-34.22273438 74.24953125 -33.57046875 74.8115625 -32.8984375 75.390625 C-30.27935863 77.61091409 -27.64856484 79.81493401 -25 82 C-21.18437605 80.70176525 -18.92909121 79.25033142 -16.1875 76.3125 C-12.86264759 72.84911208 -9.41146859 69.65969224 -5.76171875 66.54296875 C-4.10184189 65.08919634 -2.54066019 63.57858414 -1 62 C-6.60683286 56.87758101 -12.22160866 51.77155207 -17.95703125 46.79296875 C-21.24326082 43.90887817 -24.47072424 40.95978621 -27.703125 38.015625 C-29.93914975 35.98573474 -29.93914975 35.98573474 -32.296875 34.359375 C-32.85890625 33.91078125 -33.4209375 33.4621875 -34 33 C-34 32.34 -34 31.68 -34 31 C-30.50088305 30.79462097 -27.00333334 30.67170059 -23.5 30.5625 C-22.51773438 30.50384766 -21.53546875 30.44519531 -20.5234375 30.38476562 C-15.0826811 30.25781464 -11.78188464 30.58784331 -7.59765625 34.23828125 C-6.37870833 35.47301703 -5.17745751 36.72563729 -4 38 C-3.10152344 38.81726563 -2.20304687 39.63453125 -1.27734375 40.4765625 C0.28656048 41.91253466 1.84905478 43.35004384 3.41015625 44.7890625 C6.4519652 47.38584058 9.74548744 49.67534817 13 52 C13 45.4 13 38.8 13 32 C16.25875 31.95875 19.5175 31.9175 22.875 31.875 C23.90093262 31.85679199 24.92686523 31.83858398 25.98388672 31.81982422 C26.79100098 31.8148291 27.59811523 31.80983398 28.4296875 31.8046875 C29.25710449 31.79421387 30.08452148 31.78374023 30.93701172 31.77294922 C33 32 33 32 35 34 C35.3063859 36.73434962 35.5113336 39.38279821 35.625 42.125 C35.66367188 42.87910156 35.70234375 43.63320312 35.7421875 44.41015625 C35.83651031 46.27303184 35.91934662 48.13648255 36 50 C37.12592245 49.02189418 38.25065233 48.04241565 39.375 47.0625 C40.096875 46.4334375 40.81875 45.804375 41.5625 45.15625 C43.28602863 43.63159006 44.992859 42.0879551 46.6875 40.53125 C47.574375 39.7165625 48.46125 38.901875 49.375 38.0625 C50.20773438 37.29035156 51.04046875 36.51820312 51.8984375 35.72265625 C54 34 54 34 56 34 C56 33.34 56 32.68 56 32 C55.11030518 32.10211792 55.11030518 32.10211792 54.20263672 32.20629883 C36.0118242 34.01411424 36.0118242 34.01411424 29.703125 29.3515625 C26.66687363 26.65191638 23.97194551 23.67102851 21.35449219 20.56787109 C19.64469609 18.58872356 17.75839037 16.92101254 15.75 15.25 C11.79981176 11.84702398 7.95125777 8.33628805 4.1015625 4.8203125 C2.13276579 2.96323333 2.13276579 2.96323333 0 2 C0 1.34 0 0.68 0 0 Z " fill="#A5CF39" transform="translate(109,66)"/>
<path d="M0 0 C3.49911695 -0.20537903 6.99666666 -0.32829941 10.5 -0.4375 C11.48226562 -0.49615234 12.46453125 -0.55480469 13.4765625 -0.61523438 C18.9173189 -0.74218536 22.21811536 -0.41215669 26.40234375 3.23828125 C27.62129167 4.47301703 28.82254249 5.72563729 30 7 C30.89847656 7.81726563 31.79695313 8.63453125 32.72265625 9.4765625 C34.28656048 10.91253466 35.84905478 12.35004384 37.41015625 13.7890625 C40.4519652 16.38584058 43.74548744 18.67534817 47 21 C47 14.4 47 7.8 47 1 C50.25875 0.95875 53.5175 0.9175 56.875 0.875 C57.90093262 0.85679199 58.92686523 0.83858398 59.98388672 0.81982422 C60.79100098 0.8148291 61.59811523 0.80983398 62.4296875 0.8046875 C63.25710449 0.79421387 64.08452148 0.78374023 64.93701172 0.77294922 C67 1 67 1 69 3 C70.22709908 8.84817466 71.24700472 15.07940356 70 21 C66.93063462 25.09750247 63.46649543 27.5559337 59 30 C59.11043841 31.92126836 59.11043841 31.92126836 60 34 C61.68760571 34.99438047 63.39973699 35.94749092 65.125 36.875 C67.875 38.8984375 67.875 38.8984375 70 42 C71.07776595 49.32029978 69.78100425 56.71062696 69 64 C61.41 64 53.82 64 46 64 C46 57.07 46 50.14 46 43 C39.75318827 47.86883856 33.79668354 52.90360468 28.02441406 58.31762695 C21.73821704 64.19014758 17.95283959 64.39146157 9.625 64.4375 C8.5834375 64.47037109 7.541875 64.50324219 6.46875 64.53710938 C-1.22927921 64.59125152 -1.22927921 64.59125152 -5.01953125 61.68359375 C-5.67308594 60.79800781 -6.32664062 59.91242188 -7 59 C-11.13288078 54.78353287 -15.34233361 50.75329151 -19.81640625 46.8984375 C-23.16039273 43.99114335 -26.42732839 40.99931235 -29.703125 38.015625 C-31.93914975 35.98573474 -31.93914975 35.98573474 -34.296875 34.359375 C-35.13992187 33.68648437 -35.13992187 33.68648437 -36 33 C-36 32.34 -36 31.68 -36 31 C-32.33443177 30.76549022 -28.67080904 30.62488779 -25 30.5 C-23.45505859 30.39945313 -23.45505859 30.39945313 -21.87890625 30.296875 C-14.27098185 30.10304253 -14.27098185 30.10304253 -10.60986328 32.68676758 C-8.60264434 34.70540972 -6.81327518 36.80795747 -5 39 C-3.64716229 40.25351738 -2.27462906 41.48645287 -0.875 42.6875 C-0.22273438 43.24953125 0.42953125 43.8115625 1.1015625 44.390625 C3.72064137 46.61091409 6.35143516 48.81493401 9 51 C12.81562395 49.70176525 15.07090879 48.25033142 17.8125 45.3125 C21.13735241 41.84911208 24.58853141 38.65969224 28.23828125 35.54296875 C29.89815811 34.08919634 31.45933981 32.57858414 33 31 C27.39316714 25.87758101 21.77839134 20.77155207 16.04296875 15.79296875 C12.75673918 12.90887817 9.52927576 9.95978621 6.296875 7.015625 C4.06085025 4.98573474 4.06085025 4.98573474 1.703125 3.359375 C1.14109375 2.91078125 0.5790625 2.4621875 0 2 C0 1.34 0 0.68 0 0 Z " fill="#A6CF39" transform="translate(75,97)"/>
<path d="M0 0 C4.79177232 2.15733472 7.57588227 5.08267326 11 9 C12.98496264 10.85493167 14.98059408 12.6841001 17 14.5 C17.99640135 15.42545017 18.99249674 16.35122989 19.98828125 17.27734375 C23.81182875 20.7836155 27.84988108 24.00426929 31.91796875 27.22265625 C34 29 34 29 35 31 C31.33417393 31.20521049 27.6698406 31.32825201 24 31.4375 C22.97003906 31.49615234 21.94007813 31.55480469 20.87890625 31.61523438 C15.4263589 31.73678798 11.90343492 31.54458513 7.703125 27.87109375 C6.45303051 26.59595212 5.21824008 25.30560848 4 24 C2.778561 22.89439264 1.54442306 21.80262231 0.296875 20.7265625 C-0.58484375 19.95505859 -0.58484375 19.95505859 -1.484375 19.16796875 C-2.06703125 18.65878906 -2.6496875 18.14960937 -3.25 17.625 C-3.848125 17.09261719 -4.44625 16.56023437 -5.0625 16.01171875 C-5.93648437 15.25181641 -5.93648437 15.25181641 -6.828125 14.4765625 C-7.3427832 14.02361816 -7.85744141 13.57067383 -8.38769531 13.10400391 C-10.22772281 11.84406987 -11.82357446 11.41700077 -14 11 C-14 11.66 -14 12.32 -14 13 C-15.61382948 14.45659977 -17.29363216 15.84048951 -19 17.1875 C-19.99773437 17.98800781 -20.99546875 18.78851563 -22.0234375 19.61328125 C-23.00570312 20.40089844 -23.98796875 21.18851563 -25 22 C-26.55148693 23.27985436 -28.09460877 24.56999366 -29.625 25.875 C-30.25664062 26.40867187 -30.88828125 26.94234375 -31.5390625 27.4921875 C-33.25609532 29.04655749 -33.25609532 29.04655749 -34 32 C-33.11489746 32.40182495 -33.11489746 32.40182495 -32.21191406 32.81176758 C-29.97815542 34.01173483 -28.43726575 35.26612013 -26.609375 37.01171875 C-25.67448242 37.89633789 -25.67448242 37.89633789 -24.72070312 38.79882812 C-24.07037109 39.42208984 -23.42003906 40.04535156 -22.75 40.6875 C-21.40186628 41.96311164 -20.05291639 43.23786131 -18.703125 44.51171875 C-18.06052734 45.11935059 -17.41792969 45.72698242 -16.75585938 46.35302734 C-12.94351849 49.9289522 -9.00015159 53.34987494 -4.96875 56.67578125 C-3.99421875 57.48595703 -3.99421875 57.48595703 -3 58.3125 C-2.4225 58.78300781 -1.845 59.25351563 -1.25 59.73828125 C0 61 0 61 0 63 C-3.72875388 63.14560195 -7.45677434 63.23417043 -11.1875 63.3125 C-12.24259766 63.35439453 -13.29769531 63.39628906 -14.38476562 63.43945312 C-22.25107419 63.56352739 -22.25107419 63.56352739 -25.79296875 60.8984375 C-26.52128906 59.94195312 -27.24960938 58.98546875 -28 58 C-29.12953068 56.89313097 -30.27964738 55.80702978 -31.4453125 54.73828125 C-32.04730469 54.17689453 -32.64929688 53.61550781 -33.26953125 53.03710938 C-33.88183594 52.46798828 -34.49414062 51.89886719 -35.125 51.3125 C-35.74503906 50.73177734 -36.36507812 50.15105469 -37.00390625 49.55273438 C-37.90302734 48.71645508 -37.90302734 48.71645508 -38.8203125 47.86328125 C-39.35930176 47.36094971 -39.89829102 46.85861816 -40.45361328 46.34106445 C-42.17013445 44.79552633 -42.17013445 44.79552633 -45 43 C-45 42.34 -45 41.68 -45 41 C-45.85851562 40.61714844 -45.85851562 40.61714844 -46.734375 40.2265625 C-49.24173733 38.86912841 -51.1330456 37.28025896 -53.25 35.375 C-53.95640625 34.74335938 -54.6628125 34.11171875 -55.390625 33.4609375 C-55.92171875 32.97882813 -56.4528125 32.49671875 -57 32 C-56.66030923 29.06690088 -56.09021892 28.08403725 -53.890625 26.03515625 C-53.01921875 25.38417969 -52.1478125 24.73320313 -51.25 24.0625 C-47.5260775 21.25840866 -44.266587 18.32509303 -41 15 C-38.64523285 12.74901754 -36.26103444 10.53025622 -33.875 8.3125 C-33.25496094 7.73177734 -32.63492188 7.15105469 -31.99609375 6.55273438 C-31.09697266 5.71645508 -31.09697266 5.71645508 -30.1796875 4.86328125 C-29.64069824 4.36094971 -29.10170898 3.85861816 -28.54638672 3.34106445 C-21.43552346 -2.8256504 -8.85713202 -1.30893577 0 0 Z " fill="#787C7E" transform="translate(190,98)"/>
<path d="M0 0 C1.20204575 -0.00642769 1.20204575 -0.00642769 2.42837524 -0.01298523 C4.12118588 -0.01871928 5.81402116 -0.0192356 7.50683594 -0.01489258 C10.0857185 -0.01173813 12.66344713 -0.03518302 15.2421875 -0.06054688 C16.89062356 -0.06282065 18.53906269 -0.063523 20.1875 -0.0625 C20.9533139 -0.07170975 21.71912781 -0.08091949 22.50814819 -0.09040833 C27.29335267 -0.04943242 30.59026714 0.64340438 34.7265625 3.30078125 C37.1560141 6.94495865 36.88835825 9.01319397 36.7265625 13.30078125 C32.4365625 13.30078125 28.1465625 13.30078125 23.7265625 13.30078125 C23.2315625 11.81578125 23.2315625 11.81578125 22.7265625 10.30078125 C14.8065625 10.30078125 6.8865625 10.30078125 -1.2734375 10.30078125 C-1.6034375 11.62078125 -1.9334375 12.94078125 -2.2734375 14.30078125 C-1.46712891 14.32060059 -0.66082031 14.34041992 0.16992188 14.36083984 C3.85577301 14.4566381 7.54109957 14.56609485 11.2265625 14.67578125 C12.495 14.70671875 13.7634375 14.73765625 15.0703125 14.76953125 C30.66047643 15.25672387 30.66047643 15.25672387 36.7265625 19.30078125 C39.61920229 23.63974094 39.43262914 27.23657914 38.7265625 32.30078125 C37.7890625 35.73828125 37.7890625 35.73828125 35.7265625 38.30078125 C28.19890244 41.70325112 20.86575809 41.76395167 12.76025391 41.69189453 C10.59864714 41.67575949 8.43889509 41.69183473 6.27734375 41.7109375 C4.88280844 41.70895569 3.48827426 41.70511329 2.09375 41.69921875 C0.84706543 41.69583496 -0.39961914 41.69245117 -1.68408203 41.68896484 C-6.45857278 41.17261059 -10.09808305 39.63406301 -14.2109375 37.11328125 C-16.02827745 34.0131131 -15.44700137 30.82991331 -15.2734375 27.30078125 C-10.9834375 27.30078125 -6.6934375 27.30078125 -2.2734375 27.30078125 C-1.9434375 28.29078125 -1.6134375 29.28078125 -1.2734375 30.30078125 C7.3065625 30.30078125 15.8865625 30.30078125 24.7265625 30.30078125 C24.7265625 28.98078125 24.7265625 27.66078125 24.7265625 26.30078125 C23.92025391 26.28096191 23.11394531 26.26114258 22.28320312 26.24072266 C18.59735199 26.1449244 14.91202543 26.03546765 11.2265625 25.92578125 C9.958125 25.89484375 8.6896875 25.86390625 7.3828125 25.83203125 C-8.53208112 25.33469082 -8.53208112 25.33469082 -13.2109375 21.86328125 C-16.14498052 17.5485121 -15.71985946 12.29114105 -15.2734375 7.30078125 C-14.0716988 4.41660836 -13.2254772 2.96218755 -10.68115234 1.19458008 C-7.16550066 -0.11051025 -3.70139993 -0.00438193 0 0 Z " fill="#23499E" transform="translate(77.2734375,175.69921875)"/>
<path d="M0 0 C0.82876144 -0.00570007 1.65752289 -0.01140015 2.51139832 -0.01727295 C4.26743288 -0.02672748 6.02348522 -0.03325873 7.77954102 -0.03710938 C10.45946471 -0.04679906 13.13861628 -0.0778109 15.81835938 -0.109375 C17.52473503 -0.11590673 19.23111617 -0.12115654 20.9375 -0.125 C21.73662308 -0.1373468 22.53574615 -0.1496936 23.35908508 -0.16241455 C29.14103407 -0.13939967 32.48107661 1.01623286 36.66796875 5.203125 C36.93788781 7.89151885 36.75534232 10.49454436 36.66796875 13.203125 C32.37796875 13.203125 28.08796875 13.203125 23.66796875 13.203125 C23.17296875 11.718125 23.17296875 11.718125 22.66796875 10.203125 C14.74796875 9.873125 6.82796875 9.543125 -1.33203125 9.203125 C-1.00203125 10.853125 -0.67203125 12.503125 -0.33203125 14.203125 C0.47427734 14.21770752 1.28058594 14.23229004 2.11132812 14.24731445 C5.79733497 14.32220962 9.48247712 14.4187346 13.16796875 14.515625 C14.43640625 14.53818359 15.70484375 14.56074219 17.01171875 14.58398438 C32.32925365 15.02276793 32.32925365 15.02276793 37.64453125 20.0859375 C40.02552032 25.01149504 39.14962947 30.54741628 37.66796875 35.640625 C34.89010515 39.19976274 31.95809127 40.255379 27.66796875 41.203125 C23.03213612 41.55645615 18.42212788 41.59352057 13.77709961 41.53930664 C11.60688236 41.51564042 9.43789252 41.51877007 7.26757812 41.52539062 C-7.93954847 41.46478019 -7.93954847 41.46478019 -13.76953125 37.578125 C-16.09348723 34.04571191 -15.61038943 31.37849765 -15.33203125 27.203125 C-11.04203125 27.203125 -6.75203125 27.203125 -2.33203125 27.203125 C-2.00203125 28.193125 -1.67203125 29.183125 -1.33203125 30.203125 C11.53796875 30.698125 11.53796875 30.698125 24.66796875 31.203125 C24.33796875 29.553125 24.00796875 27.903125 23.66796875 26.203125 C22.20774292 26.15152222 22.20774292 26.15152222 20.71801758 26.09887695 C17.09192994 25.96440325 13.46783424 25.79850915 9.84350586 25.62329102 C8.27746488 25.55193818 6.71101572 25.48900895 5.14428711 25.43481445 C2.88624476 25.35522007 0.6314256 25.24498626 -1.625 25.12890625 C-2.32102829 25.11096512 -3.01705658 25.09302399 -3.73417664 25.07453918 C-7.63323389 24.84032755 -9.24128421 24.28069675 -12.2512207 21.70776367 C-12.93788818 20.88123291 -13.62455566 20.05470215 -14.33203125 19.203125 C-14.66203125 18.873125 -14.99203125 18.543125 -15.33203125 18.203125 C-15.85466549 13.82046356 -16.35574473 9.18561492 -14.28515625 5.17578125 C-9.93710574 -0.05466775 -6.40198045 0.03379009 0 0 Z " fill="#264C9E" transform="translate(199.33203125,175.796875)"/>
<path d="M0 0 C0.495 0.99 0.495 0.99 1 2 C2.32807481 2.67708162 3.66211014 3.34252532 5 4 C6.61230469 5.30932617 6.61230469 5.30932617 8.171875 6.79296875 C8.7498584 7.33743652 9.3278418 7.8819043 9.92333984 8.44287109 C10.82753662 9.3064624 10.82753662 9.3064624 11.75 10.1875 C13.00704084 11.37191326 14.26484772 12.55551407 15.5234375 13.73828125 C16.12510742 14.30498535 16.72677734 14.87168945 17.34667969 15.45556641 C19.86954456 17.81227686 22.44793382 20.09593727 25.09082031 22.31689453 C27 24 27 24 28.69970703 25.8034668 C33.39659234 30.56567471 36.87435272 31.81555781 43.5234375 31.97070312 C44.50570312 31.95974609 45.48796875 31.94878906 46.5 31.9375 C48.01980469 31.96166992 48.01980469 31.96166992 49.5703125 31.98632812 C52.04827407 32.02139362 54.52204339 32.02525265 57 32 C57 34 57 34 55.6015625 35.41015625 C54.94929688 35.95542969 54.29703125 36.50070313 53.625 37.0625 C49.37741597 40.65893924 45.28224201 44.39792341 41.19921875 48.1796875 C39 50 39 50 36 51 C35.93941406 49.78441406 35.87882812 48.56882813 35.81640625 47.31640625 C35.73201668 45.73175772 35.6473679 44.14712298 35.5625 42.5625 C35.52318359 41.76005859 35.48386719 40.95761719 35.44335938 40.13085938 C35.5945704 36.24760439 35.5945704 36.24760439 34 33 C32.51361008 32.84344973 31.02050873 32.74933057 29.52734375 32.68359375 C28.71773193 32.64548584 27.90812012 32.60737793 27.07397461 32.56811523 C26.03893799 32.52501221 25.00390137 32.48190918 23.9375 32.4375 C20.658125 32.293125 17.37875 32.14875 14 32 C14 38.6 14 45.2 14 52 C10.34350142 50.17175071 8.20506341 48.5464042 5.25 45.8125 C3.94095703 44.61367187 3.94095703 44.61367187 2.60546875 43.390625 C1.74566406 42.60171875 0.88585937 41.8128125 0 41 C-1.47418404 39.68190604 -2.9528392 38.36878197 -4.4375 37.0625 C-5.05496094 36.51722656 -5.67242187 35.97195312 -6.30859375 35.41015625 C-9.84586023 32.46107265 -11.79740117 31.75466742 -16.32421875 31.8046875 C-17.35224609 31.81113281 -18.38027344 31.81757812 -19.43945312 31.82421875 C-20.51130859 31.84097656 -21.58316406 31.85773438 -22.6875 31.875 C-23.77095703 31.88402344 -24.85441406 31.89304687 -25.97070312 31.90234375 C-28.6473571 31.9259266 -31.32356797 31.95883874 -34 32 C-32.33211578 28.42309728 -30.49640933 26.41539355 -27.5 23.8125 C-26.6028125 23.02488281 -25.705625 22.23726562 -24.78125 21.42578125 C-23.8634375 20.62527344 -22.945625 19.82476562 -22 19 C-20.33051794 17.50313414 -18.66378377 16.00319704 -17 14.5 C-16.1853125 13.7678125 -15.370625 13.035625 -14.53125 12.28125 C-12.75631778 10.68161973 -10.98585932 9.07701803 -9.21875 7.46875 C-7.87296875 6.24671875 -7.87296875 6.24671875 -6.5 5 C-5.6853125 4.2575 -4.870625 3.515 -4.03125 2.75 C-2 1 -2 1 0 0 Z " fill="#FAFCFC" transform="translate(108,66)"/>
<path d="M0 0 C4.49873994 0.49542074 6.56992233 2.03433631 9.8125 5.125 C10.67617187 5.93324219 11.53984375 6.74148437 12.4296875 7.57421875 C13.27789062 8.37472656 14.12609375 9.17523438 15 10 C16.47184967 11.32070013 17.95028393 12.63412798 19.4375 13.9375 C20.05496094 14.48277344 20.67242187 15.02804688 21.30859375 15.58984375 C24.79131424 18.49345136 26.86847664 19.26635834 31.32421875 19.4140625 C32.86625977 19.47207031 32.86625977 19.47207031 34.43945312 19.53125 C35.51130859 19.5621875 36.58316406 19.593125 37.6875 19.625 C38.77095703 19.66367188 39.85441406 19.70234375 40.97070312 19.7421875 C43.64696467 19.83650509 46.32321843 19.92210005 49 20 C48.24976563 20.74765625 47.49953125 21.4953125 46.7265625 22.265625 C45.18964838 23.80694289 43.65861372 25.35435032 42.1484375 26.921875 C37.65207202 31.55689493 32.86513002 35.63912989 27.83203125 39.6796875 C23.41522368 43.29842363 19.20628897 47.14043333 15 51 C9.2650106 46.89608887 4.08397442 42.44291685 -1 37.5625 C-10.03642858 28.71964809 -10.03642858 28.71964809 -20 21 C-19.43272884 17.66313721 -18.5454862 16.22982621 -15.9453125 14.08984375 C-15.02298828 13.31737305 -15.02298828 13.31737305 -14.08203125 12.52929688 C-13.43621094 12.00400391 -12.79039062 11.47871094 -12.125 10.9375 C-10.85595875 9.88509306 -9.58770276 8.83173836 -8.3203125 7.77734375 C-7.75586426 7.31577881 -7.19141602 6.85421387 -6.60986328 6.37866211 C-4.9511303 5.00697156 -4.9511303 5.00697156 -3.41748047 3.32641602 C-2 2 -2 2 0 2 C0 1.34 0 0.68 0 0 Z " fill="#FAFCFB" transform="translate(176,109)"/>
<path d="M0 0 C4.29 0 8.58 0 13 0 C13 4.95 13 9.9 13 15 C18.99628644 15.11104234 21.67543302 13.8152862 26.125 9.75 C26.91132813 8.98171875 27.69765625 8.2134375 28.5078125 7.421875 C29.33023438 6.62265625 30.15265625 5.8234375 31 5 C31.86625 4.08347656 32.7325 3.16695312 33.625 2.22265625 C37.82745779 -1.22768381 42.70472301 -0.54018835 47.875 -0.3125 C48.84953125 -0.28994141 49.8240625 -0.26738281 50.828125 -0.24414062 C53.22035515 -0.18550753 55.6093615 -0.10351153 58 0 C54.40599126 3.74822927 50.64927885 6.94813409 46.5 10.0625 C44.33114528 11.70549552 42.16510655 13.3520538 40 15 C38.56140625 16.08087891 38.56140625 16.08087891 37.09375 17.18359375 C36.4028125 17.78300781 35.711875 18.38242188 35 19 C35 19.66 35 20.32 35 21 C37.07182909 22.6272176 39.14418542 24.13606826 41.3125 25.625 C42.5926906 26.52178908 43.8726352 27.41892942 45.15234375 28.31640625 C45.79671387 28.76516113 46.44108398 29.21391602 47.10498047 29.67626953 C49.87944075 31.6143169 52.62976611 33.58321142 55.375 35.5625 C56.26960938 36.20316406 57.16421875 36.84382813 58.0859375 37.50390625 C58.71757812 37.99761719 59.34921875 38.49132812 60 39 C60 39.33 60 39.66 60 40 C40.81363689 41.56301663 40.81363689 41.56301663 35.40234375 38.171875 C32.74194853 35.91184868 30.36134659 33.56780312 28 31 C23.14922603 26.77894111 19.35549183 25.33449957 13 25 C13 29.95 13 34.9 13 40 C8.71 40 4.42 40 0 40 C0 26.8 0 13.6 0 0 Z " fill="#21489D" transform="translate(122,176)"/>
<path d="M0 0 C3.66556823 -0.23450978 7.32919096 -0.37511221 11 -0.5 C12.54494141 -0.60054688 12.54494141 -0.60054688 14.12109375 -0.703125 C21.73181796 -0.8970288 21.73181796 -0.8970288 25.40332031 1.69995117 C27.40657853 3.7145547 29.19442303 5.80911187 31 8 C32.22762005 9.12899647 33.47491403 10.2374001 34.75 11.3125 C38.79007432 14.78568642 42.70739102 18.38160808 46.61230469 22.00512695 C49.13323054 24.33314203 51.68990741 26.56754318 54.3671875 28.7109375 C55.23601562 29.46632812 56.10484375 30.22171875 57 31 C57 31.66 57 32.32 57 33 C53.27124612 33.14560195 49.54322566 33.23417043 45.8125 33.3125 C44.75740234 33.35439453 43.70230469 33.39628906 42.61523438 33.43945312 C34.74011025 33.56366644 34.74011025 33.56366644 30.96875 30.69140625 C30.3190625 29.80324219 29.669375 28.91507813 29 28 C24.86711922 23.78353287 20.65766639 19.75329151 16.18359375 15.8984375 C12.83960727 12.99114335 9.57267161 9.99931235 6.296875 7.015625 C4.06085025 4.98573474 4.06085025 4.98573474 1.703125 3.359375 C1.14109375 2.91078125 0.5790625 2.4621875 0 2 C0 1.34 0 0.68 0 0 Z " fill="#21499D" transform="translate(39,128)"/>
<path d="M0 0 C19.15162867 -1.4699164 19.15162867 -1.4699164 25.40625 1.7578125 C27.84628296 4.03569137 29.9186097 6.39406578 32 9 C33.26478647 10.15513764 34.55606709 11.2820939 35.875 12.375 C39.89101644 15.86754383 43.80172791 19.47109541 47.70068359 23.09326172 C50.02440991 25.24067868 52.35577253 27.27423122 54.86328125 29.20703125 C55.56839844 29.79871094 56.27351563 30.39039063 57 31 C57 31.66 57 32.32 57 33 C53.27124612 33.14560195 49.54322566 33.23417043 45.8125 33.3125 C44.75740234 33.35439453 43.70230469 33.39628906 42.61523438 33.43945312 C34.74892581 33.56352739 34.74892581 33.56352739 31.20703125 30.8984375 C30.47871094 29.94195312 29.75039062 28.98546875 29 28 C27.87046932 26.89313097 26.72035262 25.80702978 25.5546875 24.73828125 C24.95269531 24.17689453 24.35070312 23.61550781 23.73046875 23.03710938 C23.11816406 22.46798828 22.50585938 21.89886719 21.875 21.3125 C21.25496094 20.73177734 20.63492188 20.15105469 19.99609375 19.55273438 C19.39667969 18.99521484 18.79726562 18.43769531 18.1796875 17.86328125 C17.37120361 17.10978394 17.37120361 17.10978394 16.54638672 16.34106445 C14.82986555 14.79552633 14.82986555 14.79552633 12 13 C12 12.34 12 11.68 12 11 C11.42765625 10.7421875 10.8553125 10.484375 10.265625 10.21875 C7.78871005 8.88634058 5.8658834 7.34943882 3.75 5.5 C3.04359375 4.8915625 2.3371875 4.283125 1.609375 3.65625 C0 2 0 2 0 0 Z " fill="#21489D" transform="translate(133,128)"/>
<path d="M0 0 C20.26077674 -1.4699931 20.26077674 -1.4699931 26.14453125 1.6875 C28.31307662 4.00490656 30.12337205 6.44309442 32 9 C33.70700803 10.48829763 35.46043246 11.92456835 37.25 13.3125 C41.69822789 16.8837014 45.97773437 20.59122125 50.1875 24.4375 C50.76467773 24.95803955 51.34185547 25.4785791 51.93652344 26.01489258 C53.33128573 27.30091428 54.6712406 28.64589066 56 30 C56 30.66 56 31.32 56 32 C36.33986997 34.25656206 36.33986997 34.25656206 29.703125 29.3515625 C26.66687363 26.65191638 23.97194551 23.67102851 21.35449219 20.56787109 C19.64469609 18.58872356 17.75839037 16.92101254 15.75 15.25 C11.79981176 11.84702398 7.95125777 8.33628805 4.1015625 4.8203125 C2.13276579 2.96323333 2.13276579 2.96323333 0 2 C0 1.34 0 0.68 0 0 Z " fill="#244A9C" transform="translate(109,66)"/>
<path d="M0 0 C3.49911695 -0.20537903 6.99666666 -0.32829941 10.5 -0.4375 C11.48226562 -0.49615234 12.46453125 -0.55480469 13.4765625 -0.61523438 C18.92313042 -0.74232096 22.21951638 -0.41041209 26.40625 3.24609375 C27.62308964 4.47900191 28.82303061 5.7289751 30 7 C31.3303125 8.19109375 31.3303125 8.19109375 32.6875 9.40625 C33.450625 10.0971875 34.21375 10.788125 35 11.5 C40.03860301 16.04552871 45.12612647 20.53103649 50.2734375 24.953125 C51.00820312 25.58734375 51.74296875 26.2215625 52.5 26.875 C53.50546875 27.73738281 53.50546875 27.73738281 54.53125 28.6171875 C55.0159375 29.07351562 55.500625 29.52984375 56 30 C56 30.33 56 30.66 56 31 C34.83505391 32.73417559 34.83505391 32.73417559 29.3046875 29.01953125 C26.6182896 26.49003124 24.3082913 23.87479502 22 21 C20.67502071 19.78001907 19.32246995 18.588926 17.9375 17.4375 C14.00337783 14.02251972 10.14820163 10.52352123 6.296875 7.015625 C4.06085025 4.98573474 4.06085025 4.98573474 1.703125 3.359375 C1.14109375 2.91078125 0.5790625 2.4621875 0 2 C0 1.34 0 0.68 0 0 Z " fill="#204798" transform="translate(75,97)"/>
<path d="M0 0 C1.33520422 0.6629117 2.66800804 1.33065731 4 2 C4.86238281 2.38671875 5.72476563 2.7734375 6.61328125 3.171875 C10.05597679 5.18468108 11.83569546 6.60074413 14 10 C15.03882297 17.34120461 13.78394052 24.6832218 13 32 C5.41 32 -2.18 32 -10 32 C-10.309375 28.32875 -10.61875 24.6575 -10.9375 20.875 C-11.11140259 19.15579346 -11.11140259 19.15579346 -11.28881836 17.40185547 C-11.75463431 10.03278919 -11.75463431 10.03278919 -9.52758789 6.98486328 C-7.75520318 5.46012685 -5.99447742 4.21383852 -4 3 C-3.195625 2.38125 -2.39125 1.7625 -1.5625 1.125 C-1.046875 0.75375 -0.53125 0.3825 0 0 Z " fill="#C0C2C4" transform="translate(131,129)"/>
<path d="M0 0 C2.25999657 0.85129065 3.47417457 1.79464369 5.20898438 3.46264648 C5.78680664 4.01025635 6.36462891 4.55786621 6.95996094 5.12207031 C7.86439941 5.99835083 7.86439941 5.99835083 8.78710938 6.89233398 C10.04683998 8.0870682 11.30725134 9.28108506 12.56835938 10.47436523 C13.17035156 11.04751465 13.77234375 11.62066406 14.39257812 12.21118164 C20.01998571 17.53616619 25.9847727 22.35673253 32.13085938 27.06811523 C32.75992188 27.62885742 33.38898438 28.18959961 34.03710938 28.76733398 C34.03710938 29.42733398 34.03710938 30.08733398 34.03710938 30.76733398 C13.54260956 33.19793412 13.54260956 33.19793412 6.45117188 27.89624023 C3.20467341 24.99164585 0.32235689 21.79262193 -2.48242188 18.46411133 C-4.42859164 16.23359024 -6.60828661 14.38364784 -8.90039062 12.51733398 C-10.74023438 11.00170898 -10.74023438 11.00170898 -11.96289062 9.76733398 C-11.96289062 9.10733398 -11.96289062 8.44733398 -11.96289062 7.76733398 C-9.91601562 5.78686523 -9.91601562 5.78686523 -7.21289062 3.57983398 C-6.33117187 2.8437793 -5.44945312 2.10772461 -4.54101562 1.34936523 C-1.96289062 -0.23266602 -1.96289062 -0.23266602 0 0 Z " fill="#20489A" transform="translate(225.962890625,67.232666015625)"/>
<path d="M0 0 C4.14995157 0.89057355 6.36555249 3.56675188 9.30078125 6.51171875 C10.54309488 7.71350439 11.7879117 8.91270757 13.03515625 10.109375 C13.95651367 10.99713623 13.95651367 10.99713623 14.89648438 11.90283203 C18.17412355 14.98169012 21.68205801 17.75166617 25.1875 20.56640625 C28.76942504 23.45668799 32.35832273 26.38033318 35.67578125 29.57421875 C35.67578125 29.90421875 35.67578125 30.23421875 35.67578125 30.57421875 C32.00995518 30.77942924 28.34562185 30.90247076 24.67578125 31.01171875 C23.64582031 31.07037109 22.61585938 31.12902344 21.5546875 31.18945312 C16.09786813 31.31110196 12.58711393 31.12349432 8.39453125 27.43359375 C7.14502924 26.15676697 5.90523797 24.87035842 4.67578125 23.57421875 C3.41056353 22.4990724 2.12948593 21.44226492 0.83203125 20.40625 C0.22617188 19.90544922 -0.3796875 19.40464844 -1.00390625 18.88867188 C-2.24182126 17.86725917 -3.48693241 16.85451911 -4.73828125 15.84960938 C-6.54296875 14.34375 -6.54296875 14.34375 -9.32421875 11.57421875 C-9.32421875 7.57421875 -9.32421875 7.57421875 -7.96875 5.65234375 C-7.36417969 5.0490625 -6.75960937 4.44578125 -6.13671875 3.82421875 C-5.54503906 3.210625 -4.95335937 2.59703125 -4.34375 1.96484375 C-2.32421875 0.57421875 -2.32421875 0.57421875 0 0 Z " fill="#21489D" transform="translate(189.32421875,98.42578125)"/>
<path d="M0 0 C-0.75023437 0.74765625 -1.50046875 1.4953125 -2.2734375 2.265625 C-3.81035162 3.80694289 -5.34138628 5.35435032 -6.8515625 6.921875 C-11.34792798 11.55689493 -16.13486998 15.63912989 -21.16796875 19.6796875 C-25.58477632 23.29842363 -29.79371103 27.14043333 -34 31 C-35.25612972 30.11278216 -36.50460752 29.21472776 -37.75 28.3125 C-38.44609375 27.81363281 -39.1421875 27.31476563 -39.859375 26.80078125 C-42.28064578 24.7639093 -44.09529867 22.51815244 -46 20 C-44.40112446 18.51511559 -42.79571095 17.03726855 -41.1875 15.5625 C-39.84751953 14.32693359 -39.84751953 14.32693359 -38.48046875 13.06640625 C-36 11 -36 11 -33 10 C-33 9.34 -33 8.68 -33 8 C-25.06840823 -3.18961105 -12.15868113 -0.7905119 0 0 Z " fill="#A5CF3A" transform="translate(225,129)"/>
<path d="M0 0 C0.495 0.99 0.495 0.99 1 2 C2.32875961 2.67573672 3.66284094 3.34104032 5 4 C6.28016835 5.00435972 7.53128122 6.04690261 8.75 7.125 C9.67039062 7.93324219 9.67039062 7.93324219 10.609375 8.7578125 C11.29773438 9.37269531 11.29773438 9.37269531 12 10 C7.89424948 14.22432816 3.52425636 17.86982565 -1.0859375 21.5234375 C-3.89383672 23.76108797 -3.89383672 23.76108797 -5.49145508 25.81567383 C-8.01637718 28.8111305 -9.82706962 30.71743233 -13.71191406 31.65332031 C-16.80620155 31.90991976 -19.83307136 31.97025933 -22.9375 31.9375 C-24.00291016 31.95361328 -25.06832031 31.96972656 -26.16601562 31.98632812 C-28.77866548 32.02147588 -31.38735182 32.02519214 -34 32 C-32.33211578 28.42309728 -30.49640933 26.41539355 -27.5 23.8125 C-26.6028125 23.02488281 -25.705625 22.23726562 -24.78125 21.42578125 C-23.8634375 20.62527344 -22.945625 19.82476562 -22 19 C-20.33051794 17.50313414 -18.66378377 16.00319704 -17 14.5 C-16.1853125 13.7678125 -15.370625 13.035625 -14.53125 12.28125 C-12.75631778 10.68161973 -10.98585932 9.07701803 -9.21875 7.46875 C-7.87296875 6.24671875 -7.87296875 6.24671875 -6.5 5 C-5.6853125 4.2575 -4.870625 3.515 -4.03125 2.75 C-2 1 -2 1 0 0 Z " fill="#A5CF3A" transform="translate(108,66)"/>
<path d="M0 0 C3.29159316 -0.05790353 6.58305603 -0.09356261 9.875 -0.125 C10.81214844 -0.14175781 11.74929687 -0.15851563 12.71484375 -0.17578125 C13.61074219 -0.18222656 14.50664062 -0.18867187 15.4296875 -0.1953125 C16.25710449 -0.20578613 17.08452148 -0.21625977 17.93701172 -0.22705078 C20 0 20 0 22 2 C25.20005389 16.4750101 25.20005389 16.4750101 21.86083984 21.82519531 C18.70643953 25.22513523 14.98488196 27.67109688 11 30 C6.10038449 27.5021568 1.59779213 25.09881275 -1 20 C-1.45228416 16.48707806 -1.16091068 13.1391854 -0.8125 9.625 C-0.74224609 8.69816406 -0.67199219 7.77132812 -0.59960938 6.81640625 C-0.42369016 4.54118446 -0.22327594 2.27098069 0 0 Z " fill="#BDBFC1" transform="translate(122,98)"/>
<path d="M0 0 C6.93 0 13.86 0 21 0 C21 2.97 21 5.94 21 9 C24.3 9 27.6 9 31 9 C31 10.32 31 11.64 31 13 C20.77 13 10.54 13 0 13 C0 8.71 0 4.42 0 0 Z " fill="#D5D7D8" transform="translate(117,225)"/>
<path d="M0 0 C1.58206057 0.00667536 3.16410534 0.0186375 4.74609375 0.03515625 C5.55240234 0.03966797 6.35871094 0.04417969 7.18945312 0.04882812 C9.18753131 0.06065107 11.18557158 0.07858711 13.18359375 0.09765625 C14.74134311 3.21315497 14.74839997 6.70209505 14.18359375 10.09765625 C13.07421875 11.83203125 13.07421875 11.83203125 11.18359375 13.09765625 C8.15234375 13.4609375 8.15234375 13.4609375 4.68359375 13.41015625 C3.53890625 13.40628906 2.39421875 13.40242187 1.21484375 13.3984375 C-1.81640625 13.09765625 -1.81640625 13.09765625 -4.81640625 11.09765625 C-5.14453125 8.75 -5.14453125 8.75 -5.06640625 6.03515625 C-5.0509375 5.13667969 -5.03546875 4.23820313 -5.01953125 3.3125 C-4.6698365 -0.50051781 -4.05472778 0.10375455 0 0 Z " fill="#A0A1A3" transform="translate(153.81640625,224.90234375)"/>
<path d="M0 0 C2.81256281 -0.02684312 5.62487241 -0.04676188 8.4375 -0.0625 C9.23994141 -0.07087891 10.04238281 -0.07925781 10.86914062 -0.08789062 C12.91295221 -0.0965143 14.95683902 -0.0522815 17 0 C18.66561399 1.66561399 18.17115945 3.65962705 18.1875 5.9375 C18.20167969 6.83339844 18.21585938 7.72929687 18.23046875 8.65234375 C18 11 18 11 16 13 C13.25514407 13.14507695 10.61519457 13.18652423 7.875 13.125 C7.12089844 13.11597656 6.36679688 13.10695312 5.58984375 13.09765625 C3.72642746 13.0740687 1.86317407 13.03819719 0 13 C0 8.71 0 4.42 0 0 Z " fill="#ADAEB0" transform="translate(61,225)"/>
<path d="M0 0 C7.92 0 15.84 0 24 0 C24.33 1.32 24.66 2.64 25 4 C29.29 4 33.58 4 38 4 C37.34 4.33 36.68 4.66 36 5 C36.66 6.65 37.32 8.3 38 10 C37.29875 9.690625 36.5975 9.38125 35.875 9.0625 C30.93374752 7.23638495 26.03190127 6.87048989 20.796875 6.71875 C19.07984375 6.66267578 19.07984375 6.66267578 17.328125 6.60546875 C14.92709685 6.53469609 12.52605493 6.46438953 10.125 6.39453125 C8.98546875 6.35714844 7.8459375 6.31976563 6.671875 6.28125 C5.6312793 6.25095703 4.59068359 6.22066406 3.51855469 6.18945312 C1 6 1 6 -1 5 C-0.67 3.35 -0.34 1.7 0 0 Z " fill="#F7FCFD" transform="translate(76,185)"/>
<path d="M0 0 C6.88982511 -0.13658244 13.74589056 0.0780621 20.625 0.4375 C21.43114746 0.47673584 22.23729492 0.51597168 23.06787109 0.55639648 C28.88012814 0.88012814 28.88012814 0.88012814 30 2 C30 3.65 30 5.3 30 7 C21.42 7 12.84 7 4 7 C3.67 5.68 3.34 4.36 3 3 C-1.29 3 -5.58 3 -10 3 C-10 2.67 -10 2.34 -10 2 C-6.7 2 -3.4 2 0 2 C0 1.34 0 0.68 0 0 Z " fill="#EDF5FB" transform="translate(194,200)"/>
<path d="M0 0 C15.84 0.495 15.84 0.495 32 1 C32.495 3.475 32.495 3.475 33 6 C32 7 32 7 29.49975586 7.11352539 C28.41573486 7.10828857 27.33171387 7.10305176 26.21484375 7.09765625 C25.04501953 7.09443359 23.87519531 7.09121094 22.66992188 7.08789062 C21.43822266 7.07951172 20.20652344 7.07113281 18.9375 7.0625 C17.08415039 7.05573242 17.08415039 7.05573242 15.19335938 7.04882812 C12.12885883 7.03699608 9.06445279 7.02051173 6 7 C5.67 5.68 5.34 4.36 5 3 C0.71 3 -3.58 3 -8 3 C-8 2.67 -8 2.34 -8 2 C-5.36 1.67 -2.72 1.34 0 1 C0 0.67 0 0.34 0 0 Z " fill="#F2F8FD" transform="translate(70,200)"/>
<path d="M0 0 C1.17691406 0.00257813 2.35382813 0.00515625 3.56640625 0.0078125 C5.32791016 0.00394531 5.32791016 0.00394531 7.125 0 C10.12890625 0.1328125 10.12890625 0.1328125 12.12890625 1.1328125 C12.12890625 2.1228125 12.12890625 3.1128125 12.12890625 4.1328125 C8.16890625 3.8028125 4.20890625 3.4728125 0.12890625 3.1328125 C0.12890625 3.7928125 0.12890625 4.4528125 0.12890625 5.1328125 C0.98355469 5.12121094 1.83820313 5.10960937 2.71875 5.09765625 C3.82347656 5.08863281 4.92820313 5.07960937 6.06640625 5.0703125 C7.16855469 5.05871094 8.27070313 5.04710937 9.40625 5.03515625 C12.12890625 5.1328125 12.12890625 5.1328125 13.12890625 6.1328125 C13.31640625 8.5703125 13.31640625 8.5703125 13.12890625 11.1328125 C11.12890625 13.1328125 11.12890625 13.1328125 8.16015625 13.3984375 C6.99484375 13.39328125 5.82953125 13.388125 4.62890625 13.3828125 C3.46359375 13.38796875 2.29828125 13.393125 1.09765625 13.3984375 C-1.87109375 13.1328125 -1.87109375 13.1328125 -3.87109375 11.1328125 C-4.1015625 8.78515625 -4.1015625 8.78515625 -4.05859375 6.0703125 C-4.05214844 5.17183594 -4.04570312 4.27335938 -4.0390625 3.34765625 C-3.78386204 -0.01742894 -3.43258314 0.15878616 0 0 Z " fill="#B6B7B9" transform="translate(225.87109375,224.8671875)"/>
<path d="M0 0 C2.45840605 -0.02691685 4.91651882 -0.04679802 7.375 -0.0625 C8.07367188 -0.07087891 8.77234375 -0.07925781 9.4921875 -0.08789062 C14.7734375 -0.11328125 14.7734375 -0.11328125 17 1 C17.125 4.375 17.125 4.375 17 8 C15 10 15 10 12.6171875 10.1953125 C11.71226562 10.17210937 10.80734375 10.14890625 9.875 10.125 C8.50988281 10.09792969 8.50988281 10.09792969 7.1171875 10.0703125 C6.41851562 10.04710937 5.71984375 10.02390625 5 10 C5 10.99 5 11.98 5 13 C3.35 13 1.7 13 0 13 C0 8.71 0 4.42 0 0 Z " fill="#A8A9AB" transform="translate(169,225)"/>
<path d="M0 0 C2.64590014 -0.02684679 5.29153096 -0.04676357 7.9375 -0.0625 C8.69224609 -0.07087891 9.44699219 -0.07925781 10.22460938 -0.08789062 C12.14994313 -0.09652441 14.07535581 -0.05224333 16 0 C17 1 17 1 17.09765625 3.72265625 C17.08605469 4.82480469 17.07445312 5.92695313 17.0625 7.0625 C17.05347656 8.16722656 17.04445312 9.27195313 17.03515625 10.41015625 C17.02355469 11.26480469 17.01195312 12.11945313 17 13 C15.68 13 14.36 13 13 13 C12.67 12.01 12.34 11.02 12 10 C9.36 9.67 6.72 9.34 4 9 C4 9.99 4 10.98 4 12 C2.68 12 1.36 12 0 12 C0 8.04 0 4.08 0 0 Z " fill="#999A9B" transform="translate(204,225)"/>
<path d="M0 0 C7.92 0 15.84 0 24 0 C24.33 1.32 24.66 2.64 25 4 C29.29 4 33.58 4 38 4 C38 4.33 38 4.66 38 5 C36.02 5 34.04 5 32 5 C32 5.66 32 6.32 32 7 C21.77 6.67 11.54 6.34 1 6 C0.34 4.68 -0.32 3.36 -1 2 C-0.67 1.34 -0.34 0.68 0 0 Z " fill="#EBF4FC" transform="translate(198,185)"/>
<path d="M0 0 C2.93167219 0.31693753 4.58982661 0.63225834 6.8125 2.625 C8.41568775 5.8313755 8.20379759 8.46750852 8 12 C3.71 12 -0.58 12 -5 12 C-5.33 11.01 -5.66 10.02 -6 9 C-14.25 9 -22.5 9 -31 9 C-30.67 8.01 -30.34 7.02 -30 6 C-20.66666667 6 -11.33333333 6 -2 6 C-0.42726432 3.1575146 -0.42726432 3.1575146 0 0 Z " fill="#2F519B" transform="translate(106,177)"/>
<path d="M0 0 C4.95 0 9.9 0 15 0 C15 0.99 15 1.98 15 3 C11.37 3 7.74 3 4 3 C4 3.66 4 4.32 4 5 C7.63 5 11.26 5 15 5 C15 5.99 15 6.98 15 8 C11.37 8 7.74 8 4 8 C4 8.66 4 9.32 4 10 C7.63 10 11.26 10 15 10 C15 10.99 15 11.98 15 13 C10.05 13 5.1 13 0 13 C0 8.71 0 4.42 0 0 Z " fill="#9E9FA1" transform="translate(187,225)"/>
<path d="M0 0 C4.95 0 9.9 0 15 0 C15 0.99 15 1.98 15 3 C11.37 3 7.74 3 4 3 C4 3.66 4 4.32 4 5 C7.3 5 10.6 5 14 5 C14 5.66 14 6.32 14 7 C10.7 7 7.4 7 4 7 C4 7.99 4 8.98 4 10 C7.63 10 11.26 10 15 10 C15 10.99 15 11.98 15 13 C10.05 13 5.1 13 0 13 C0 8.71 0 4.42 0 0 Z " fill="#A3A4A6" transform="translate(81,225)"/>
<path d="M0 0 C4.95 0 9.9 0 15 0 C15 0.99 15 1.98 15 3 C11.37 3 7.74 3 4 3 C4 3.66 4 4.32 4 5 C7.63 5 11.26 5 15 5 C15 5.66 15 6.32 15 7 C11.37 7 7.74 7 4 7 C4 7.99 4 8.98 4 10 C7.63 10 11.26 10 15 10 C15 10.66 15 11.32 15 12 C10.05 12 5.1 12 0 12 C0 8.04 0 4.08 0 0 Z " fill="#929394" transform="translate(117,225)"/>
<path d="M0 0 C2.25 0.0625 2.25 0.0625 5 1 C6.67849824 3.2308475 7.75999263 5.47405906 9 8 C9.30292969 7.4225 9.60585937 6.845 9.91796875 6.25 C11.17074561 4.02969393 12.3926736 1.98092118 14 0 C16.8125 -0.5 16.8125 -0.5 19 0 C17.58707905 4.8274799 15.57025846 8.7162359 13 13 C10.69 13 8.38 13 6 13 C4.99491199 11.21118264 3.99607264 9.41885304 3 7.625 C2.1646875 6.12839844 2.1646875 6.12839844 1.3125 4.6015625 C0 2 0 2 0 0 Z " fill="#9C9D9F" transform="translate(97,225)"/>
<path d="M0 0 C1.0625 1.875 1.0625 1.875 2 4 C1.67 4.66 1.34 5.32 1 6 C0.34 6 -0.32 6 -1 6 C-1.33 7.65 -1.66 9.3 -2 11 C-5.50051525 11 -6.0126916 10.47488681 -8.5625 8.25 C-9.16191406 7.73953125 -9.76132813 7.2290625 -10.37890625 6.703125 C-12.08204947 4.91379863 -13.01568423 3.25266295 -14 1 C-9.32798795 -0.20568053 -4.78503708 -0.09382426 0 0 Z " fill="#1B459F" transform="translate(96,99)"/>
<path d="M0 0 C2.4375 0.375 2.4375 0.375 5 1 C5.33 1.66 5.66 2.32 6 3 C11.15950168 3.02480163 16.31896831 3.04290809 21.47851562 3.05493164 C23.23210251 3.05994651 24.98568524 3.06676002 26.73925781 3.07543945 C29.2662865 3.08763 31.79325968 3.09325688 34.3203125 3.09765625 C35.09867462 3.10281754 35.87703674 3.10797882 36.6789856 3.11329651 C40.9003949 3.1137272 44.84091388 2.8358664 49 2 C46.54660662 4.96989725 44.76132357 5.45019346 41 6 C36.44663077 6.21617204 31.89323155 6.22805051 27.33544922 6.24023438 C25.13861212 6.24993986 22.94271179 6.28100021 20.74609375 6.3125 C19.33333883 6.31903153 17.92057729 6.32428142 16.5078125 6.328125 C14.59959717 6.34214355 14.59959717 6.34214355 12.65283203 6.35644531 C8.36795543 5.93832475 5.7946583 5.00448142 2 3 C1.34 2.01 0.68 1.02 0 0 Z " fill="#4866A1" transform="translate(63,211)"/>
<path d="M0 0 C5.28 0 10.56 0 16 0 C16 1.32 16 2.64 16 4 C11.71 3.34 7.42 2.68 3 2 C3 4.31 3 6.62 3 9 C5.64 9 8.28 9 11 9 C11 9.66 11 10.32 11 11 C7.37 11 3.74 11 0 11 C0 7.37 0 3.74 0 0 Z " fill="#909193" transform="translate(62,226)"/>
<path d="M0 0 C1.32 0 2.64 0 4 0 C4 2.97 4 5.94 4 9 C7.3 9 10.6 9 14 9 C14 9.99 14 10.98 14 12 C9.38 12 4.76 12 0 12 C0 8.04 0 4.08 0 0 Z " fill="#98999A" transform="translate(134,225)"/>
<path d="M0 0 C0.59167969 0.64453125 1.18335938 1.2890625 1.79296875 1.953125 C6.4897403 4.95082085 10.84677513 4.67306721 16.3125 4.75 C17.33923828 4.77964844 18.36597656 4.80929688 19.42382812 4.83984375 C21.94929675 4.91032194 24.47385415 4.9631266 27 5 C26.67 5.66 26.34 6.32 26 7 C12.14 6.34 -1.72 5.68 -16 5 C-16 11.6 -16 18.2 -16 25 C-16.33 25 -16.66 25 -17 25 C-17 18.07 -17 11.14 -17 4 C-11.39 4 -5.78 4 0 4 C0 2.68 0 1.36 0 0 Z " fill="#E0E6ED" transform="translate(138,93)"/>
<path d="M0 0 C0.66 0 1.32 0 2 0 C2 3.96 2 7.92 2 12 C3.32 12.33 4.64 12.66 6 13 C4.02 13 2.04 13 0 13 C0 12.01 0 11.02 0 10 C-3.63 10 -7.26 10 -11 10 C-11 9.34 -11 8.68 -11 8 C-7.37 8 -3.74 8 0 8 C0 7.01 0 6.02 0 5 C-3.63 5 -7.26 5 -11 5 C-11 4.34 -11 3.68 -11 3 C-7.37 3 -3.74 3 0 3 C0 2.01 0 1.02 0 0 Z " fill="#E1E2E4" transform="translate(202,225)"/>
<path d="M0 0 C3.63 0 7.26 0 11 0 C9.02 0.99 9.02 0.99 7 2 C9.84441735 5.68160401 12.07424355 8.54585533 16.3125 10.625 C19 12 19 12 19.875 14.6875 C19.91625 15.450625 19.9575 16.21375 20 17 C20.66 17 21.32 17 22 17 C21.67 17.66 21.34 18.32 21 19 C5.76595745 5.76595745 5.76595745 5.76595745 0 0 Z " fill="#315096" transform="translate(76,99)"/>
<path d="M0 0 C0.66 0 1.32 0 2 0 C2 0.66 2 1.32 2 2 C5.3 2 8.6 2 12 2 C12 2.66 12 3.32 12 4 C8.7 4 5.4 4 2 4 C2 4.99 2 5.98 2 7 C5.63 7 9.26 7 13 7 C13 7.66 13 8.32 13 9 C8.38 9 3.76 9 -1 9 C-1.09765625 2.84765625 -1.09765625 2.84765625 -1 1 C-0.67 0.67 -0.34 0.34 0 0 Z " fill="#919294" transform="translate(83,228)"/>
<path d="M0 0 C1.32 0 2.64 0 4 0 C4.125 2.375 4.125 2.375 4 5 C2 7 2 7 -1.0390625 7.1953125 C-2.22242188 7.17210937 -3.40578125 7.14890625 -4.625 7.125 C-5.81351563 7.10695312 -7.00203125 7.08890625 -8.2265625 7.0703125 C-9.14179688 7.04710937 -10.05703125 7.02390625 -11 7 C-11.66 5.68 -12.32 4.36 -13 3 C-8.71 3.33 -4.42 3.66 0 4 C0 2.68 0 1.36 0 0 Z " fill="#9B9C9E" transform="translate(235,231)"/>
<path d="M0 0 C7.1641791 0.47761194 7.1641791 0.47761194 10.5 2.5625 C12.70924266 6.15251931 12.27804297 8.82935544 12 13 C7.71 13 3.42 13 -1 13 C-1 12.01 -1 11.02 -1 10 C2.63 10 6.26 10 10 10 C10 8.68 10 7.36 10 6 C9.34 6 8.68 6 8 6 C7.3503125 5.319375 7.3503125 5.319375 6.6875 4.625 C4.64371183 2.65690769 2.65469676 1.93273129 0 1 C0 0.67 0 0.34 0 0 Z " fill="#3E5B9C" transform="translate(224,176)"/>
<path d="M0 0 C1.32 0.33 2.64 0.66 4 1 C1.71997766 4.16978715 0.33189643 5.73746881 -3.56884766 6.50634766 C-6.65704348 6.71638381 -9.7172667 6.79548283 -12.8125 6.8125 C-13.88693359 6.83763672 -14.96136719 6.86277344 -16.06835938 6.88867188 C-18.71260771 6.94743295 -21.35520488 6.98379376 -24 7 C-22.25 3.125 -22.25 3.125 -20 2 C-20 2.66 -20 3.32 -20 4 C-13.73 3.67 -7.46 3.34 -1 3 C-0.67 2.01 -0.34 1.02 0 0 Z " fill="#9BC467" transform="translate(98,91)"/>
<path d="M0 0 C0.33 0.99 0.66 1.98 1 3 C10.9 2.505 10.9 2.505 21 2 C20.01 3.485 20.01 3.485 19 5 C16.47802734 5.43237305 16.47802734 5.43237305 13.3359375 5.51171875 C12.21445313 5.54716797 11.09296875 5.58261719 9.9375 5.61914062 C8.761875 5.64169922 7.58625 5.66425781 6.375 5.6875 C4.59996094 5.73874023 4.59996094 5.73874023 2.7890625 5.79101562 C-0.1405306 5.87370575 -3.0698164 5.94278714 -6 6 C-5 3 -5 3 -3 1.875 C-2.34 1.58625 -1.68 1.2975 -1 1 C-0.67 0.67 -0.34 0.34 0 0 Z " fill="#A3C25B" transform="translate(171,93)"/>
<path d="M0 0 C1.23556641 0.01740234 1.23556641 0.01740234 2.49609375 0.03515625 C3.32238281 0.04417969 4.14867187 0.05320313 5 0.0625 C5.63808594 0.07410156 6.27617187 0.08570313 6.93359375 0.09765625 C6.93359375 2.07765625 6.93359375 4.05765625 6.93359375 6.09765625 C3.63359375 6.09765625 0.33359375 6.09765625 -3.06640625 6.09765625 C-3.06640625 0.14491523 -3.06640625 0.14491523 0 0 Z " fill="#F4F5F6" transform="translate(156.06640625,227.90234375)"/>
<path d="M0 0 C2.97 0 5.94 0 9 0 C5 2 5 2 3 2 C3.33 2.99 3.66 3.98 4 5 C6.31 5.33 8.62 5.66 11 6 C10.67 6.66 10.34 7.32 10 8 C7.69 8 5.38 8 3 8 C3 8.99 3 9.98 3 11 C2.01 11 1.02 11 0 11 C0 7.37 0 3.74 0 0 Z " fill="#909192" transform="translate(170,226)"/>
<path d="M0 0 C1.9375 0.8125 1.9375 0.8125 4 2 C4.33 2.99 4.66 3.98 5 5 C-2.59 5 -10.18 5 -18 5 C-18 4.34 -18 3.68 -18 3 C-12.39 3 -6.78 3 -1 3 C-0.67 2.01 -0.34 1.02 0 0 Z " fill="#466895" transform="translate(91,156)"/>
<path d="M0 0 C7.26 0 14.52 0 22 0 C22 0.33 22 0.66 22 1 C17.05 1 12.1 1 7 1 C7.95934081 4.83736322 8.23609263 5.59660228 11 8 C10.67 8.99 10.34 9.98 10 11 C8.32742645 9.5484451 6.66208242 8.08855591 5 6.625 C3.6078125 5.40683594 3.6078125 5.40683594 2.1875 4.1640625 C1.465625 3.44992188 0.74375 2.73578125 0 2 C0 1.34 0 0.68 0 0 Z " fill="#365393" transform="translate(133,128)"/>
<path d="M0 0 C4.95 0 9.9 0 15 0 C15 0.99 15 1.98 15 3 C8.565 3.495 8.565 3.495 2 4 C1.67 6.64 1.34 9.28 1 12 C0.67 12 0.34 12 0 12 C0 8.04 0 4.08 0 0 Z " fill="#9D9FA0" transform="translate(117,225)"/>
<path d="M0 0 C-1.65 0.99 -3.3 1.98 -5 3 C-5 2.34 -5 1.68 -5 1 C-8.0836642 1.13931138 -11.16683417 1.28759281 -14.25 1.4375 C-15.55904297 1.49647461 -15.55904297 1.49647461 -16.89453125 1.55664062 C-17.73886719 1.59853516 -18.58320312 1.64042969 -19.453125 1.68359375 C-20.22817383 1.72025146 -21.00322266 1.75690918 -21.80175781 1.79467773 C-23.9574976 1.99603015 -25.91801475 2.41729297 -28 3 C-26.6953125 1.0546875 -26.6953125 1.0546875 -24 -1 C-20.30612784 -1.71371051 -16.62945791 -1.7884696 -12.875 -1.875 C-11.86050781 -1.92140625 -10.84601563 -1.9678125 -9.80078125 -2.015625 C-2.27613216 -2.27613216 -2.27613216 -2.27613216 0 0 Z " fill="#90B762" transform="translate(133,129)"/>
<path d="M0 0 C1.68319336 0.02707031 1.68319336 0.02707031 3.40039062 0.0546875 C6.16363447 0.10172144 8.92512698 0.16743683 11.6875 0.25 C10.3675 1.24 9.0475 2.23 7.6875 3.25 C7.3575 2.59 7.0275 1.93 6.6875 1.25 C3.95512206 1.28313799 1.23075157 1.35041961 -1.5 1.4375 C-2.26892578 1.44330078 -3.03785156 1.44910156 -3.83007812 1.45507812 C-8.11489354 1.62058602 -9.78874487 1.79025939 -13.125 4.71875 C-13.846875 5.5540625 -14.56875 6.389375 -15.3125 7.25 C-17.67018325 8.33079483 -19.75025481 8.69735888 -22.3125 9.25 C-20.66947047 7.56002677 -18.99778688 5.89783606 -17.3125 4.25 C-16.6834375 3.5384375 -16.054375 2.826875 -15.40625 2.09375 C-10.50336542 -0.82817111 -5.58623168 -0.16977443 0 0 Z " fill="#A7C469" transform="translate(214.3125,65.75)"/>
<path d="M0 0 C0.94786377 0.01571045 1.89572754 0.0314209 2.87231445 0.04760742 C3.9003418 0.05727539 4.92836914 0.06694336 5.98754883 0.0769043 C7.59533203 0.11460937 7.59533203 0.11460937 9.2355957 0.15307617 C10.31905273 0.16661133 11.40250977 0.18014648 12.51879883 0.1940918 C15.19572975 0.22946974 17.87166408 0.27883429 20.5480957 0.34057617 C19.2280957 1.66057617 17.9080957 2.98057617 16.5480957 4.34057617 C16.5480957 3.68057617 16.5480957 3.02057617 16.5480957 2.34057617 C5.6580957 2.83557617 5.6580957 2.83557617 -5.4519043 3.34057617 C-2.4519043 0.34057617 -2.4519043 0.34057617 0 0 Z " fill="#9DC571" transform="translate(204.451904296875,128.659423828125)"/>
<path d="M0 0 C4.29 0 8.58 0 13 0 C12.67 0.99 12.34 1.98 12 3 C12 2.34 12 1.68 12 1 C8.37 1 4.74 1 1 1 C1.33 1.66 1.66 2.32 2 3 C3.32 3 4.64 3 6 3 C5.34 5.31 4.68 7.62 4 10 C4.66 10 5.32 10 6 10 C6 10.66 6 11.32 6 12 C3.53199953 10.84826645 1.95216435 9.95216435 0 8 C-0.26991906 5.31160615 -0.08737357 2.70858064 0 0 Z " fill="#2F5094" transform="translate(184,203)"/>
<path d="M0 0 C7.59 0 15.18 0 23 0 C23 0.99 23 1.98 23 3 C19.72918529 3.02902429 16.4584037 3.04680684 13.1875 3.0625 C12.25873047 3.07087891 11.32996094 3.07925781 10.37304688 3.08789062 C9.48037109 3.09111328 8.58769531 3.09433594 7.66796875 3.09765625 C6.43469849 3.10551147 6.43469849 3.10551147 5.17651367 3.11352539 C3 3 3 3 0 2 C0 1.34 0 0.68 0 0 Z " fill="#4A6CA9" transform="translate(39,128)"/>
<path d="M0 0 C1.17219543 0.78345715 2.33763668 1.57702836 3.5 2.375 C4.1496875 2.81585938 4.799375 3.25671875 5.46875 3.7109375 C5.9740625 4.13632813 6.479375 4.56171875 7 5 C7 5.66 7 6.32 7 7 C-0.59 7 -8.18 7 -16 7 C-16 6.67 -16 6.34 -16 6 C-11.38 5.67 -6.76 5.34 -2 5 C-1.34 3.35 -0.68 1.7 0 0 Z " fill="#4562A4" transform="translate(253,91)"/>
<path d="M0 0 C0.66 0.33 1.32 0.66 2 1 C0.625 3.5 0.625 3.5 -1 6 C-1.66 6 -2.32 6 -3 6 C-5.09350689 9.4019487 -5.17942163 12.05272412 -5 16 C-6.98 14.35 -8.96 12.7 -11 11 C-7.33333333 7.33333333 -3.66666667 3.66666667 0 0 Z " fill="#A2C853" transform="translate(190,139)"/>
<path d="M0 0 C1.68496298 0.96885372 3.35178756 1.96986723 5 3 C5 3.33 5 3.66 5 4 C-2.59 4 -10.18 4 -18 4 C-18.33 3.34 -18.66 2.68 -19 2 C-12.73 2 -6.46 2 0 2 C0 1.34 0 0.68 0 0 Z " fill="#295175" transform="translate(220,125)"/>
<path d="M0 0 C0.33 1.32 0.66 2.64 1 4 C-0.175625 4.37125 -0.175625 4.37125 -1.375 4.75 C-4.42295608 6.20140766 -4.72536664 6.99550707 -6 10 C-8.43363852 13.04204815 -11.51214603 14.37233481 -15 16 C-11.96900954 9.20998706 -5.68240917 4.57364641 0 0 Z " fill="#AACD47" transform="translate(93,79)"/>
<path d="M0 0 C2.12493141 -0.02693575 4.24995912 -0.04636628 6.375 -0.0625 C7.55835938 -0.07410156 8.74171875 -0.08570313 9.9609375 -0.09765625 C13 0 13 0 15 1 C15 1.99 15 2.98 15 4 C10.05 4 5.1 4 0 4 C0 2.68 0 1.36 0 0 Z " fill="#9B9C9E" transform="translate(223,225)"/>
<path d="M0 0 C0.99 0.66 1.98 1.32 3 2 C3 2.66 3 3.32 3 4 C-4.59 4 -12.18 4 -20 4 C-20 3.34 -20 2.68 -20 2 C-13.4 2 -6.8 2 0 2 C0 1.34 0 0.68 0 0 Z " fill="#627CA7" transform="translate(187,157)"/>
<path d="M0 0 C0 2.97 0 5.94 0 9 C-4.29 9 -8.58 9 -13 9 C-13.33 8.34 -13.66 7.68 -14 7 C-10.7 6.67 -7.4 6.34 -4 6 C-3.87625 5.195625 -3.7525 4.39125 -3.625 3.5625 C-3.41875 2.716875 -3.2125 1.87125 -3 1 C-1 0 -1 0 0 0 Z " fill="#909193" transform="translate(167,228)"/>
<path d="M0 0 C3.59797949 0.30839824 4.75517196 0.72019652 7.1875 3.5 C10.66468847 6.5908342 13.36235675 6.77417341 17.8125 6.8125 C18.85180664 6.85020508 18.85180664 6.85020508 19.91210938 6.88867188 C21.60747122 6.94713263 23.30379287 6.97653047 25 7 C25.33 6.01 25.66 5.02 26 4 C27.32 5.32 28.64 6.64 30 8 C9.15883035 9.29704995 9.15883035 9.29704995 3.1875 4.5625 C1.23046875 2.62890625 1.23046875 2.62890625 0 1 C0 0.67 0 0.34 0 0 Z " fill="#3B579A" transform="translate(152,208)"/>
<path d="M0 0 C0.66 0 1.32 0 2 0 C2.12375 0.639375 2.2475 1.27875 2.375 1.9375 C2.684375 2.9584375 2.684375 2.9584375 3 4 C3.66 4.33 4.32 4.66 5 5 C5 5.99 5 6.98 5 8 C5.99 7.67 6.98 7.34 8 7 C7.67 8.32 7.34 9.64 7 11 C7.66 11.33 8.32 11.66 9 12 C5.03869629 12 4.17085599 10.65122875 1.3125 8 C0.50425781 7.2575 -0.30398437 6.515 -1.13671875 5.75 C-1.75160156 5.1725 -2.36648437 4.595 -3 4 C-2.34 3.67 -1.68 3.34 -1 3 C-0.67 2.01 -0.34 1.02 0 0 Z " fill="#2B4E9D" transform="translate(220,76)"/>
<path d="M0 0 C6.93 0 13.86 0 21 0 C17.39035432 3.60964568 15.23990184 5.698339 11 8 C11 4 11 4 13 2 C8.71 1.67 4.42 1.34 0 1 C0 0.67 0 0.34 0 0 Z " fill="#365699" transform="translate(159,176)"/>
<path d="M0 0 C2.97 0 5.94 0 9 0 C9 1.65 9 3.3 9 5 C6.03 5 3.06 5 0 5 C0 3.35 0 1.7 0 0 Z " fill="#FCFDFD" transform="translate(66,229)"/>
<path d="M0 0 C0.33 1.32 0.66 2.64 1 4 C0.071875 4.12375 0.071875 4.12375 -0.875 4.25 C-3.16669871 4.79326091 -3.16669871 4.79326091 -4.0625 6.9375 C-4.371875 7.618125 -4.68125 8.29875 -5 9 C-8 11 -8 11 -11 11 C-11 11.99 -11 12.98 -11 14 C-12.32 13.67 -13.64 13.34 -15 13 C-13.75482035 11.86966702 -12.50363348 10.74594964 -11.25 9.625 C-10.55390625 8.99851562 -9.8578125 8.37203125 -9.140625 7.7265625 C-7.15491312 6.12494817 -5.32045907 5.03479932 -3 4 C-3 3.34 -3 2.68 -3 2 C-2.01 1.34 -1.02 0.68 0 0 Z " fill="#B1D059" transform="translate(187,79)"/>
<path d="M0 0 C7.92 0 15.84 0 24 0 C24 0.33 24 0.66 24 1 C16.74 1 9.48 1 2 1 C2 2.32 2 3.64 2 5 C4.31 5 6.62 5 9 5 C9 5.33 9 5.66 9 6 C1.25 6.125 1.25 6.125 -1 5 C-0.67 3.35 -0.34 1.7 0 0 Z " fill="#CCDEF7" transform="translate(76,185)"/>
<path d="M0 0 C4.95 0 9.9 0 15 0 C15 0.99 15 1.98 15 3 C14.01 3.33 13.02 3.66 12 4 C12 3.34 12 2.68 12 2 C8.7 2 5.4 2 2 2 C1.67 3.32 1.34 4.64 1 6 C0.67 6 0.34 6 0 6 C0 4.02 0 2.04 0 0 Z " fill="#909292" transform="translate(205,226)"/>
<path d="M0 0 C0.6703125 0.1546875 1.340625 0.309375 2.03125 0.46875 C5.52652056 1.09421947 8.95509928 1.30148556 12.5 1.5 C16.76443071 1.73880812 20.83417619 2.03865604 25 3 C25 3.33 25 3.66 25 4 C7.48593611 4.38258877 7.48593611 4.38258877 1 2 C0.67 1.34 0.34 0.68 0 0 Z " fill="#6179B1" transform="translate(65,197)"/>
<path d="M0 0 C3.63 0 7.26 0 11 0 C5.375 6.75 5.375 6.75 2 9 C2.33 7.68 2.66 6.36 3 5 C3.66 5 4.32 5 5 5 C5 4.34 5 3.68 5 3 C4.34 3 3.68 3 3 3 C3 2.34 3 1.68 3 1 C2.01 1.33 1.02 1.66 0 2 C0 1.34 0 0.68 0 0 Z " fill="#727988" transform="translate(176,99)"/>
<path d="M0 0 C2 1 2 1 3 3 C3.99 3 4.98 3 6 3 C3.57235427 5.93872904 1.72278671 6.46817333 -2 7 C-2.928125 7.185625 -3.85625 7.37125 -4.8125 7.5625 C-5.534375 7.706875 -6.25625 7.85125 -7 8 C-6.02133662 6.85373678 -5.04205413 5.70800212 -4.0625 4.5625 C-3.51722656 3.92441406 -2.97195312 3.28632813 -2.41015625 2.62890625 C-1.63204305 1.73008851 -0.84063472 0.84063472 0 0 Z " fill="#B0D253" transform="translate(97,138)"/>
<path d="M0 0 C2.31 0 4.62 0 7 0 C8.60725635 3.21451269 8.05748185 6.43612536 8 10 C7.67 10 7.34 10 7 10 C6.67 8.02 6.34 6.04 6 4 C5.34 4 4.68 4 4 4 C4 5.65 4 7.3 4 9 C3.67 9 3.34 9 3 9 C3 7.02 3 5.04 3 3 C2.01 2.67 1.02 2.34 0 2 C0 1.34 0 0.68 0 0 Z " fill="#A6A7A9" transform="translate(160,225)"/>
<path d="M0 0 C0.66 0.33 1.32 0.66 2 1 C1.21753906 1.68707031 0.43507812 2.37414062 -0.37109375 3.08203125 C-1.39350211 3.99188089 -2.41562259 4.90205408 -3.4375 5.8125 C-3.95376953 6.26431641 -4.47003906 6.71613281 -5.00195312 7.18164062 C-7.51327806 9.43034335 -8.91516394 10.74549181 -10 14 C-10.99 13.67 -11.98 13.34 -13 13 C-11.44533803 8.91667098 -8.74912156 6.91791007 -5.375 4.25 C-4.37210938 3.45078125 -3.36921875 2.6515625 -2.3359375 1.828125 C-1.17964844 0.92320312 -1.17964844 0.92320312 0 0 Z " fill="#D8E7F6" transform="translate(169,184)"/>
<path d="M0 0 C4.29 0 8.58 0 13 0 C12.01 0.495 12.01 0.495 11 1 C11.66 2.65 12.32 4.3 13 6 C11.948125 5.5359375 11.948125 5.5359375 10.875 5.0625 C8.00311527 3.8835798 8.00311527 3.8835798 4.8125 3.5625 C3.4203125 3.2840625 3.4203125 3.2840625 2 3 C1.34 2.01 0.68 1.02 0 0 Z " fill="#DEECFA" transform="translate(101,189)"/>
<path d="M0 0 C0.99 0 1.98 0 3 0 C3 0.66 3 1.32 3 2 C3.99 2.33 4.98 2.66 6 3 C4.35 4.32 2.7 5.64 1 7 C-1.31 5.35 -3.62 3.7 -6 2 C-5.34 1.67 -4.68 1.34 -4 1 C-3.01 1.66 -2.02 2.32 -1 3 C-0.67 2.01 -0.34 1.02 0 0 Z " fill="#A3C856" transform="translate(96,153)"/>
<path d="M0 0 C0 3.90977459 -1.24456118 4.81418467 -3.8125 7.6875 C-4.52019531 8.49574219 -5.22789062 9.30398437 -5.95703125 10.13671875 C-8 12 -8 12 -11 12 C-9.49650623 8.33213607 -7.36271208 6.31089607 -4.375 3.75 C-3.14910156 2.69039063 -3.14910156 2.69039063 -1.8984375 1.609375 C-1.27195313 1.07828125 -0.64546875 0.5471875 0 0 Z " fill="#F0F9DC" transform="translate(201,87)"/>
<path d="M0 0 C0 3.77910478 -0.99703962 4.46106101 -3.5 7.1875 C-4.1496875 7.90292969 -4.799375 8.61835938 -5.46875 9.35546875 C-5.9740625 9.89816406 -6.479375 10.44085938 -7 11 C-7.33 10.34 -7.66 9.68 -8 9 C-8.66 8.67 -9.32 8.34 -10 8 C-8.89764064 7.03958829 -7.79303376 6.08175593 -6.6875 5.125 C-5.76517578 4.32449219 -5.76517578 4.32449219 -4.82421875 3.5078125 C-3 2 -3 2 0 0 Z " fill="#B7C59D" transform="translate(130,130)"/>
<path d="M0 0 C3.96 0 7.92 0 12 0 C12.33 1.65 12.66 3.3 13 5 C12 6 12 6 8.4375 6.0625 C7.303125 6.041875 6.16875 6.02125 5 6 C5.61875 5.731875 6.2375 5.46375 6.875 5.1875 C9.2995233 4.04443152 9.2995233 4.04443152 11 1 C7.37 1 3.74 1 0 1 C0 0.67 0 0.34 0 0 Z " fill="#D3E3F5" transform="translate(90,201)"/>
<path d="M0 0 C1 3 1 3 0.0625 5.1875 C-0.4634375 6.0846875 -0.4634375 6.0846875 -1 7 C-2.65 6.67 -4.3 6.34 -6 6 C-3.84615385 0 -3.84615385 0 0 0 Z " fill="#2C519B" transform="translate(69,177)"/>
<path d="M0 0 C8.25 0 16.5 0 25 0 C25 0.66 25 1.32 25 2 C12.625 2.495 12.625 2.495 0 3 C0 2.01 0 1.02 0 0 Z " fill="#E6F2FD" transform="translate(236,97)"/>
<path d="M0 0 C0 0.99 0 1.98 0 3 C-0.66 3 -1.32 3 -2 3 C-2.185625 3.556875 -2.37125 4.11375 -2.5625 4.6875 C-4.66360714 8.06754192 -7.70665994 9.85140381 -11 12 C-9.49650623 8.33213607 -7.36271208 6.31089607 -4.375 3.75 C-3.14910156 2.69039063 -3.14910156 2.69039063 -1.8984375 1.609375 C-1.27195312 1.07828125 -0.64546875 0.5471875 0 0 Z " fill="#EDF9DA" transform="translate(108,86)"/>
<path d="M0 0 C2.97 0 5.94 0 9 0 C9 0.99 9 1.98 9 3 C6.03 3 3.06 3 0 3 C0 2.01 0 1.02 0 0 Z " fill="#EBECED" transform="translate(208,228)"/>
<path d="M0 0 C0.66 0.33 1.32 0.66 2 1 C0.54782324 2.50596108 -0.91192861 4.00462104 -2.375 5.5 C-3.18710938 6.3353125 -3.99921875 7.170625 -4.8359375 8.03125 C-7 10 -7 10 -9 10 C-9.33 10.66 -9.66 11.32 -10 12 C-9.49452628 7.91944849 -7.49911118 6.33727705 -4.4375 3.75 C-3.61121094 3.04359375 -2.78492188 2.3371875 -1.93359375 1.609375 C-1.29550781 1.07828125 -0.65742188 0.5471875 0 0 Z " fill="#E7E9EC" transform="translate(166,118)"/>
<path d="M0 0 C2.64 0 5.28 0 8 0 C8.33 0.99 8.66 1.98 9 3 C6.03 3 3.06 3 0 3 C0 2.01 0 1.02 0 0 Z " fill="#E6E7E9" transform="translate(173,228)"/>
<path d="M0 0 C0.33 0 0.66 0 1 0 C1.125 2.875 1.125 2.875 1 6 C0.34 6.66 -0.32 7.32 -1 8 C-1 7.34 -1 6.68 -1 6 C-4.63 6 -8.26 6 -12 6 C-12 5.67 -12 5.34 -12 5 C-11.07767578 4.90912109 -11.07767578 4.90912109 -10.13671875 4.81640625 C-9.32847656 4.73261719 -8.52023438 4.64882812 -7.6875 4.5625 C-6.88699219 4.48128906 -6.08648437 4.40007812 -5.26171875 4.31640625 C-2.83912821 4.04734307 -2.83912821 4.04734307 0 3 C0 2.01 0 1.02 0 0 Z " fill="#A2A3A5" transform="translate(220,226)"/>
<path d="M0 0 C0.33 0.99 0.66 1.98 1 3 C-0.49739583 4.20442708 -1.99479167 5.40885417 -3.4921875 6.61328125 C-5.25292107 8.12270545 -5.25292107 8.12270545 -7 11 C-7 7 -7 7 -5.46875 5.078125 C-4.8190625 4.47484375 -4.169375 3.8715625 -3.5 3.25 C-2.8503125 2.63640625 -2.200625 2.0228125 -1.53125 1.390625 C-1.0259375 0.93171875 -0.520625 0.4728125 0 0 Z " fill="#2B4B8F" transform="translate(187,99)"/>
<path d="M0 0 C2.1875 0.3125 2.1875 0.3125 4 1 C0.17819158 5.4008703 -2.47371099 6.80805531 -8 8 C-6.33333333 6.33333333 -4.66666667 4.66666667 -3 3 C-2.484375 2.38125 -1.96875 1.7625 -1.4375 1.125 C-0.963125 0.75375 -0.48875 0.3825 0 0 Z " fill="#B3D25F" transform="translate(200,67)"/>
<path d="M0 0 C1.68496298 0.96885372 3.35178756 1.96986723 5 3 C5 3.33 5 3.66 5 4 C-0.28 4 -5.56 4 -11 4 C-11 3.67 -11 3.34 -11 3 C-7.37 3 -3.74 3 0 3 C0 2.01 0 1.02 0 0 Z " fill="#355393" transform="translate(177,212)"/>
<path d="M0 0 C2.97 1.98 2.97 1.98 6 4 C4.35 5.32 2.7 6.64 1 8 C0.02391783 5.07175348 -0.08226668 3.04386724 0 0 Z " fill="#A9CF5C" transform="translate(114,72)"/>
<path d="M0 0 C0.66 0.33 1.32 0.66 2 1 C0.02 3.31 -1.96 5.62 -4 8 C-5.32 7.67 -6.64 7.34 -8 7 C-5.36 4.69 -2.72 2.38 0 0 Z " fill="#F5FBDA" transform="translate(119,140)"/>
<path d="M0 0 C1.16959987 0.97566112 2.33561177 1.955625 3.5 2.9375 C4.1496875 3.48277344 4.799375 4.02804688 5.46875 4.58984375 C5.9740625 5.05519531 6.479375 5.52054687 7 6 C7 6.33 7 6.66 7 7 C4.69 7 2.38 7 0 7 C0.66 5.68 1.32 4.36 2 3 C1.01 2.67 0.02 2.34 -1 2 C-0.67 1.34 -0.34 0.68 0 0 Z " fill="#35549A" transform="translate(158,90)"/>
<path d="M0 0 C0.33 1.32 0.66 2.64 1 4 C-4.2734375 7.22265625 -4.2734375 7.22265625 -6 8 C-6.66 7.67 -7.32 7.34 -8 7 C-5.36 4.69 -2.72 2.38 0 0 Z " fill="#AFCE56" transform="translate(93,79)"/>
<path d="M0 0 C0.66 0.33 1.32 0.66 2 1 C0.32482761 4.53647504 -0.49280817 5.7911563 -4.1875 7.3125 C-5.5796875 7.6528125 -5.5796875 7.6528125 -7 8 C-6.02133662 6.85373678 -5.04205413 5.70800212 -4.0625 4.5625 C-3.51722656 3.92441406 -2.97195312 3.28632813 -2.41015625 2.62890625 C-1.63204305 1.73008851 -0.84063472 0.84063472 0 0 Z " fill="#B0D05B" transform="translate(190,139)"/>
<path d="M0 0 C3.36720387 1.39332574 4.9859524 2.9789286 7 6 C6.01 6.33 5.02 6.66 4 7 C4 6.01 4 5.02 4 4 C2.35 3.67 0.7 3.34 -1 3 C-0.67 2.01 -0.34 1.02 0 0 Z " fill="#30539A" transform="translate(213,119)"/>
<path d="M0 0 C3.63 0 7.26 0 11 0 C7 3 7 3 4 4 C2.68 2.68 1.36 1.36 0 0 Z " fill="#2E4EA6" transform="translate(76,99)"/>
<path d="M0 0 C4.29 0 8.58 0 13 0 C13 0.33 13 0.66 13 1 C11.02 1 9.04 1 7 1 C7 1.66 7 2.32 7 3 C4.03824877 2.38722388 2.61941217 1.74627478 0 0 Z " fill="#E1F1FD" transform="translate(223,189)"/>
<path d="M0 0 C0.97608217 2.92824652 1.08226668 4.95613276 1 8 C-0.65 6.35 -2.3 4.7 -4 3 C-2.68 2.01 -1.36 1.02 0 0 Z " fill="#A4C866" transform="translate(89,146)"/>
<path d="M0 0 C0.33 0.99 0.66 1.98 1 3 C-1.64 3 -4.28 3 -7 3 C-7 2.34 -7 1.68 -7 1 C-4 0 -4 0 0 0 Z " fill="#949597" transform="translate(160,225)"/>
<path d="M0 0 C1.65 0 3.3 0 5 0 C4.34 1.32 3.68 2.64 3 4 C2.34 4 1.68 4 1 4 C0.67 4.99 0.34 5.98 0 7 C-0.33 5.68 -0.66 4.36 -1 3 C-0.01 3 0.98 3 2 3 C2 2.34 2 1.68 2 1 C1.34 0.67 0.68 0.34 0 0 Z " fill="#A6CB44" transform="translate(123,130)"/>
<path d="M0 0 C3.7952131 1.49097658 5.61042731 3.75700849 8 7 C7.4225 6.690625 6.845 6.38125 6.25 6.0625 C4.15705816 5.07416636 2.25464725 4.4831387 0 4 C0 2.68 0 1.36 0 0 Z " fill="#204978" transform="translate(178,150)"/>
<path d="M0 0 C0 3 0 3 -2 6 C-2 6.66 -2 7.32 -2 8 C-3.32 7.67 -4.64 7.34 -6 7 C-6 6.34 -6 5.68 -6 5 C-4.04072937 3.2856382 -2.04119788 1.61594832 0 0 Z " fill="#B3D260" transform="translate(198,132)"/>
<path d="M0 0 C0.66 0.33 1.32 0.66 2 1 C-0.52788007 3.79872437 -2.20411134 5.45773019 -6 6 C-2.25 1.125 -2.25 1.125 0 0 Z " fill="#EEF7DD" transform="translate(213,77)"/>
<path d="M0 0 C2.4375 0.375 2.4375 0.375 5 1 C5.33 1.66 5.66 2.32 6 3 C6.99 3.66 7.98 4.32 9 5 C3.46153846 4.50769231 3.46153846 4.50769231 1.125 1.9375 C0.75375 1.298125 0.3825 0.65875 0 0 Z " fill="#355796" transform="translate(63,211)"/>
<path d="M0 0 C0.33 0.99 0.66 1.98 1 3 C-0.98 4.32 -2.96 5.64 -5 7 C-5.66 6.67 -6.32 6.34 -7 6 C-4.69 4.02 -2.38 2.04 0 0 Z " fill="#3B5C9F" transform="translate(153,181)"/>
<path d="M0 0 C3.93673644 1.31224548 6.22719294 2.91910327 9 6 C4.58763974 6 3.21615077 3.9302707 0 1 C0 0.67 0 0.34 0 0 Z " fill="#355498" transform="translate(101,121)"/>
<path d="M0 0 C2 3 2 3 2 5 C2.66 5 3.32 5 4 5 C3.67 5.66 3.34 6.32 3 7 C1.2925002 5.71937515 -0.37373596 4.38232443 -2 3 C-2 2.34 -2 1.68 -2 1 C-1.34 0.67 -0.68 0.34 0 0 Z " fill="#37599B" transform="translate(94,111)"/>
</svg>
